{"title":"Ghost Storm 2011 DVDRip XViD juggs","uid":8297158,"size":740532199,"categoryP":"video","categoryS":"movies","magnet":"?xt=urn:btih:6601637725316616dc37007a57cff373401844cd&amp;dn=Ghost+Storm+2011+DVDRip+XViD+juggs&amp;tr=udp%3A%2F%2Ftracker.openbittorrent.com%3A80&amp;tr=udp%3A%2F%2Fopen.demonii.com%3A1337&amp;tr=udp%3A%2F%2Ftracker.coppersurfer.tk%3A6969&amp;tr=udp%3A%2F%2Fexodus.desync.com%3A6969","seeders":1,"leechers":3,"uploader":"juggs99","files":3,"time":1364170986,"description":"Source : DVDR IGUANA (Thanks)\n &lt;a href=&quot;\nhttp://www.imdb.com/title/tt1939686/&quot; rel=&quot;nofollow&quot; target=&quot;_NEW&quot;&gt;\nhttp://www.imdb.com/title/tt1939686/&lt;/a&gt;\n\n\nFormat : AVI\nFormat/Info : Audio Video Interleave\nFile size : 699 MiB\nDuration : 1h 29mn\nOverall bit rate : 1 088 Kbps\nWriting library : VirtualDub build 32842/release\n\nVideo\nID : 0\nFormat : MPEG-4 Visual\nFormat profile : Advanced Simple@L5\nFormat settings, BVOP : 4\nFormat settings, QPel : No\nFormat settings, GMC : No warppoints\nFormat settings, Matrix : Default (H.263)\nMuxing mode : Packed bitstream\nCodec ID : XVID\nCodec ID/Hint : XviD\nDuration : 1h 29mn\nBit rate : 951 Kbps\nWidth : 640 pixels\nHeight : 352 pixels\nDisplay aspect ratio : 16:9\nFrame rate : 23.976 fps\nColor space : YUV\nChroma subsampling : 4:2:0\nBit depth : 8 bits\nScan type : Progressive\nCompression mode : Lossy\nBits/(Pixel*Frame) : 0.176\nStream size : 610 MiB (87%)\nWriting library : XviD 64\n\nAudio\nID : 1\nFormat : MPEG Audio\nFormat version : Version 1\nFormat profile : Layer 3\nCodec ID : 55\nCodec ID/Hint : MP3\nDuration : 1h 29mn\nBit rate mode : Constant\nBit rate : 128 Kbps\nChannel(s) : 2 channels\nSampling rate : 44.1 KHz\nCompression mode : Lossy\nStream size : 82.2 MiB (12%)\nAlignment : Split accross interleaves\nInterleave, duration : 42 ms (1.00 video frame)\nInterleave, preload duration : 500 ms\nWriting library : LAME3.99r\nEncoding settings : -m s -V 4 -q 3 -lowpass 17 -b 128\n\n\nPlot\nAn action packed chase led by Hal and Ashley to save the people on this small island from a strange electrical storm which is led by angry souls from a mass suicide looking for revenge.\n &lt;a href=&quot;\nhttp://www.shotpix.com/images/90319803623328826380.png&quot; rel=&quot;nofollow&quot; target=&quot;_NEW&quot;&gt;\nhttp://www.shotpix.com/images/90319803623328826380.png&lt;/a&gt; &lt;a href=&quot;\nhttp://www.shotpix.com/images/65093149926904351113.png&quot; rel=&quot;nofollow&quot; target=&quot;_NEW&quot;&gt;\nhttp://www.shotpix.com/images/65093149926904351113.png&lt;/a&gt; &lt;a href=&quot;\nhttp://www.shotpix.com/images/58066321831084618978.png&quot; rel=&quot;nofollow&quot; target=&quot;_NEW&quot;&gt;\nhttp://www.shotpix.com/images/58066321831084618978.png&lt;/a&gt;","torrent":{"xt":"urn:btih:6601637725316616dc37007a57cff373401844cd","amp;dn":"Ghost+Storm+2011+DVDRip+XViD+juggs","amp;tr":["udp%3A%2F%2Ftracker.openbittorrent.com%3A80","udp%3A%2F%2Fopen.demonii.com%3A1337","udp%3A%2F%2Ftracker.coppersurfer.tk%3A6969","udp%3A%2F%2Fexodus.desync.com%3A6969"],"infoHash":"6601637725316616dc37007a57cff373401844cd","infoHashBuffer":{"type":"Buffer","data":[102,1,99,119,37,49,102,22,220,55,0,122,87,207,243,115,64,24,68,205]},"announce":[],"urlList":[]}}